{
	"accessors" : 
	[
		{
			"bufferView" : 2,
			"byteOffset" : 0,
			"componentType" : 5126,
			"count" : 19974,
			"max" : 
			[
				1,
				1,
				1,
				1
			],
			"min" : 
			[
				0.1939721554517746,
				0.05284162983298302,
				0,
				1
			],
			"name" : "accessor_color_m0-PolyPaper21_-809646",
			"type" : "VEC4"
		},
		{
			"bufferView" : 2,
			"byteOffset" : 319584,
			"componentType" : 5126,
			"count" : 17714,
			"max" : 
			[
				1,
				1,
				1,
				1
			],
			"min" : 
			[
				0,
				0.01606770046055317,
				0,
				1
			],
			"name" : "accessor_color_m3-PolyPaper8_-809664",
			"type" : "VEC4"
		},
		{
			"bufferView" : 2,
			"byteOffset" : 603008,
			"componentType" : 5126,
			"count" : 17736,
			"max" : 
			[
				1,
				1,
				1,
				1
			],
			"min" : 
			[
				0,
				0.0384727455675602,
				0.01188133470714092,
				1
			],
			"name" : "accessor_color_m4-PolyPaper21_-809670",
			"type" : "VEC4"
		},
		{
			"bufferView" : 2,
			"byteOffset" : 886784,
			"componentType" : 5126,
			"count" : 3144,
			"max" : 
			[
				1,
				1,
				1,
				1
			],
			"min" : 
			[
				0.1939721554517746,
				0.08919350802898407,
				0.01188133470714092,
				1
			],
			"name" : "accessor_color_m5-PolyPaper21_-809676",
			"type" : "VEC4"
		},
		{
			"bufferView" : 0,
			"byteOffset" : 0,
			"componentType" : 5123,
			"count" : 28398,
			"max" : 
			[
				19973
			],
			"min" : 
			[
				0
			],
			"name" : "accessor_indices_0_m0-PolyPaper21_-809646",
			"type" : "SCALAR"
		},
		{
			"bufferView" : 0,
			"byteOffset" : 56796,
			"componentType" : 5123,
			"count" : 25500,
			"max" : 
			[
				17713
			],
			"min" : 
			[
				0
			],
			"name" : "accessor_indices_0_m3-PolyPaper8_-809664",
			"type" : "SCALAR"
		},
		{
			"bufferView" : 0,
			"byteOffset" : 107796,
			"componentType" : 5123,
			"count" : 25074,
			"max" : 
			[
				17735
			],
			"min" : 
			[
				0
			],
			"name" : "accessor_indices_0_m4-PolyPaper21_-809670",
			"type" : "SCALAR"
		},
		{
			"bufferView" : 0,
			"byteOffset" : 157944,
			"componentType" : 5123,
			"count" : 4524,
			"max" : 
			[
				3143
			],
			"min" : 
			[
				0
			],
			"name" : "accessor_indices_0_m5-PolyPaper21_-809676",
			"type" : "SCALAR"
		},
		{
			"bufferView" : 1,
			"byteOffset" : 239688,
			"componentType" : 5126,
			"count" : 19974,
			"max" : 
			[
				1,
				1,
				1
			],
			"min" : 
			[
				-1,
				-1,
				-1
			],
			"name" : "accessor_normal_m0-PolyPaper21_-809646",
			"type" : "VEC3"
		},
		{
			"bufferView" : 1,
			"byteOffset" : 691944,
			"componentType" : 5126,
			"count" : 17714,
			"max" : 
			[
				1,
				1,
				1
			],
			"min" : 
			[
				-1,
				-1,
				-1
			],
			"name" : "accessor_normal_m3-PolyPaper8_-809664",
			"type" : "VEC3"
		},
		{
			"bufferView" : 1,
			"byteOffset" : 1117344,
			"componentType" : 5126,
			"count" : 17736,
			"max" : 
			[
				1,
				1,
				1
			],
			"min" : 
			[
				-1,
				-1,
				-1
			],
			"name" : "accessor_normal_m4-PolyPaper21_-809670",
			"type" : "VEC3"
		},
		{
			"bufferView" : 1,
			"byteOffset" : 1367904,
			"componentType" : 5126,
			"count" : 3144,
			"max" : 
			[
				1,
				0.9955681,
				0.9973885
			],
			"min" : 
			[
				-1,
				-0.9955685,
				-0.9973887
			],
			"name" : "accessor_normal_m5-PolyPaper21_-809676",
			"type" : "VEC3"
		},
		{
			"bufferView" : 1,
			"byteOffset" : 0,
			"componentType" : 5126,
			"count" : 19974,
			"max" : 
			[
				-0.09831815000000001,
				2.340001,
				0.7700474
			],
			"min" : 
			[
				-0.9870132,
				-0.040084,
				-1.929908
			],
			"name" : "accessor_position_m0-PolyPaper21_-809646",
			"type" : "VEC3"
		},
		{
			"bufferView" : 1,
			"byteOffset" : 479376,
			"componentType" : 5126,
			"count" : 17714,
			"max" : 
			[
				-0.09338390000000001,
				1.929148,
				0.889985
			],
			"min" : 
			[
				-1.05001,
				-0.02008116,
				-1.989998
			],
			"name" : "accessor_position_m3-PolyPaper8_-809664",
			"type" : "VEC3"
		},
		{
			"bufferView" : 1,
			"byteOffset" : 904512,
			"componentType" : 5126,
			"count" : 17736,
			"max" : 
			[
				-0.1137926,
				2.350022,
				1.000044
			],
			"min" : 
			[
				-1.283367,
				-0.01005797,
				-1.869983
			],
			"name" : "accessor_position_m4-PolyPaper21_-809670",
			"type" : "VEC3"
		},
		{
			"bufferView" : 1,
			"byteOffset" : 1330176,
			"componentType" : 5126,
			"count" : 3144,
			"max" : 
			[
				-0.2300206,
				2.33242,
				-0.6799425
			],
			"min" : 
			[
				-1.01002,
				1.209962,
				-1.459942
			],
			"name" : "accessor_position_m5-PolyPaper21_-809676",
			"type" : "VEC3"
		}
	],
	"asset" : 
	{
		"copyright" : "Unknown",
		"generator" : "glTF 1-to-2 Upgrader for Google Blocks",
		"version" : "2.0"
	},
	"bufferViews" : 
	[
		{
			"buffer" : 0,
			"byteLength" : 166992,
			"byteOffset" : 0,
			"name" : "ushortBufferView",
			"target" : 34963
		},
		{
			"buffer" : 0,
			"byteLength" : 1405632,
			"byteOffset" : 166992,
			"byteStride" : 12,
			"name" : "vec3BufferView",
			"target" : 34962
		},
		{
			"buffer" : 0,
			"byteLength" : 937088,
			"byteOffset" : 1572624,
			"byteStride" : 16,
			"name" : "vec4BufferView",
			"target" : 34962
		}
	],
	"buffers" : 
	[
		{
			"byteLength" : 2509712,
			"name" : "model",
			"uri" : "model.bin"
		}
	],
	"materials" : 
	[
		{
			"alphaMode" : "OPAQUE",
			"doubleSided" : false,
			"name" : "BlocksPaper",
			"pbrMetallicRoughness" : 
			{
				"baseColorFactor" : 
				[
					1,
					1,
					1,
					1
				],
				"metallicFactor" : 0,
				"roughnessFactor" : 0.6
			}
		},
		{
			"alphaMode" : "BLEND",
			"doubleSided" : false,
			"name" : "BlocksGlass",
			"pbrMetallicRoughness" : 
			{
				"baseColorFactor" : 
				[
					0.2,
					0.2,
					1,
					0.3
				],
				"metallicFactor" : 1,
				"roughnessFactor" : 0.4
			}
		},
		{
			"alphaMode" : "OPAQUE",
			"doubleSided" : true,
			"name" : "BlocksGem",
			"pbrMetallicRoughness" : 
			{
				"baseColorFactor" : 
				[
					1,
					0.4,
					1,
					1
				],
				"metallicFactor" : 0,
				"roughnessFactor" : 0.1
			}
		}
	],
	"meshes" : 
	[
		{
			"name" : "mesh_m0-PolyPaper21_-809646",
			"primitives" : 
			[
				{
					"attributes" : 
					{
						"COLOR_0" : 0,
						"NORMAL" : 8,
						"POSITION" : 12
					},
					"indices" : 4,
					"material" : 0,
					"mode" : 4
				}
			]
		},
		{
			"name" : "mesh_m3-PolyPaper8_-809664",
			"primitives" : 
			[
				{
					"attributes" : 
					{
						"COLOR_0" : 1,
						"NORMAL" : 9,
						"POSITION" : 13
					},
					"indices" : 5,
					"material" : 0,
					"mode" : 4
				}
			]
		},
		{
			"name" : "mesh_m4-PolyPaper21_-809670",
			"primitives" : 
			[
				{
					"attributes" : 
					{
						"COLOR_0" : 2,
						"NORMAL" : 10,
						"POSITION" : 14
					},
					"indices" : 6,
					"material" : 0,
					"mode" : 4
				}
			]
		},
		{
			"name" : "mesh_m5-PolyPaper21_-809676",
			"primitives" : 
			[
				{
					"attributes" : 
					{
						"COLOR_0" : 3,
						"NORMAL" : 11,
						"POSITION" : 15
					},
					"indices" : 7,
					"material" : 0,
					"mode" : 4
				}
			]
		}
	],
	"nodes" : 
	[
		{
			"matrix" : 
			[
				1,
				0,
				0,
				0,
				0,
				1,
				0,
				0,
				0,
				0,
				1,
				0,
				0,
				0,
				0,
				1
			],
			"mesh" : 1,
			"name" : "node_MeshObject-153491456-PolyPaper8"
		},
		{
			"matrix" : 
			[
				1,
				0,
				0,
				0,
				0,
				1,
				0,
				0,
				0,
				0,
				1,
				0,
				0,
				0,
				0,
				1
			],
			"mesh" : 0,
			"name" : "node_MeshObject2082307072-PolyPaper21"
		},
		{
			"matrix" : 
			[
				1,
				0,
				0,
				0,
				0,
				1,
				0,
				0,
				0,
				0,
				1,
				0,
				0,
				0,
				0,
				1
			],
			"mesh" : 2,
			"name" : "node_MeshObject418587648-PolyPaper21"
		},
		{
			"matrix" : 
			[
				1,
				0,
				0,
				0,
				0,
				1,
				0,
				0,
				0,
				0,
				1,
				0,
				0,
				0,
				0,
				1
			],
			"mesh" : 3,
			"name" : "node_MeshObject990666752-PolyPaper21"
		}
	],
	"scene" : 0,
	"scenes" : 
	[
		{
			"extras" : {},
			"name" : "defaultScene",
			"nodes" : 
			[
				1,
				0,
				2,
				3
			]
		}
	]
}