{
   "accessors" : [
      {
         "bufferView" : 2,
         "byteOffset" : 0,
         "componentType" : 5126,
         "count" : 2152,
         "max" : [ 1, 0.835527777671814, 0.7893137335777283, 1 ],
         "min" : [ 5.692175545846112e-05, 0.0384727455675602, 0, 1 ],
         "name" : "accessor_color_m0-PolyPaper21_-111292",
         "type" : "VEC4"
      },
      {
         "bufferView" : 2,
         "byteOffset" : 34432,
         "componentType" : 5126,
         "count" : 240,
         "max" : [ 1, 1, 1, 1 ],
         "min" : [ 1, 1, 1, 1 ],
         "name" : "accessor_color_m2-PolyGem25_-111304",
         "type" : "VEC4"
      },
      {
         "bufferView" : 0,
         "byteOffset" : 0,
         "componentType" : 5123,
         "count" : 3228,
         "max" : [ 2151 ],
         "min" : [ 0 ],
         "name" : "accessor_indices_0_m0-PolyPaper21_-111292",
         "type" : "SCALAR"
      },
      {
         "bufferView" : 0,
         "byteOffset" : 6456,
         "componentType" : 5123,
         "count" : 360,
         "max" : [ 239 ],
         "min" : [ 0 ],
         "name" : "accessor_indices_0_m2-PolyGem25_-111304",
         "type" : "SCALAR"
      },
      {
         "bufferView" : 1,
         "byteOffset" : 25824,
         "componentType" : 5126,
         "count" : 2152,
         "max" : [ 0.9941646, 0.9982253, 0.9954916 ],
         "min" : [ -0.993314, -0.9982253, -0.9953511 ],
         "name" : "accessor_normal_m0-PolyPaper21_-111292",
         "type" : "VEC3"
      },
      {
         "bufferView" : 1,
         "byteOffset" : 54528,
         "componentType" : 5126,
         "count" : 240,
         "max" : [ 0.97698, 0.9858776, 0.9866294 ],
         "min" : [ -0.9716254, -0.9865784, -0.9729043000000001 ],
         "name" : "accessor_normal_m2-PolyGem25_-111304",
         "type" : "VEC3"
      },
      {
         "bufferView" : 1,
         "byteOffset" : 0,
         "componentType" : 5126,
         "count" : 2152,
         "max" : [ -0.05975414, 1.20186, 0.215479 ],
         "min" : [ -0.4891341, 1.045241, -0.2164886 ],
         "name" : "accessor_position_m0-PolyPaper21_-111292",
         "type" : "VEC3"
      },
      {
         "bufferView" : 1,
         "byteOffset" : 51648,
         "componentType" : 5126,
         "count" : 240,
         "max" : [ -0.07211645, 1.197584, 0.1917976 ],
         "min" : [ -0.3220054, 1.141407, -0.1216316 ],
         "name" : "accessor_position_m2-PolyGem25_-111304",
         "type" : "VEC3"
      }
   ],
   "asset" : {
      "copyright" : "Unknown",
      "generator" : "glTF 1-to-2 Upgrader for Google Blocks",
      "version" : "2.0"
   },
   "bufferViews" : [
      {
         "buffer" : 0,
         "byteLength" : 7176,
         "byteOffset" : 0,
         "name" : "ushortBufferView",
         "target" : 34963
      },
      {
         "buffer" : 0,
         "byteLength" : 57408,
         "byteOffset" : 7176,
         "byteStride" : 12,
         "name" : "vec3BufferView",
         "target" : 34962
      },
      {
         "buffer" : 0,
         "byteLength" : 38272,
         "byteOffset" : 64584,
         "byteStride" : 16,
         "name" : "vec4BufferView",
         "target" : 34962
      }
   ],
   "buffers" : [
      {
         "byteLength" : 102856,
         "name" : "model",
         "uri" : "model.bin"
      }
   ],
   "cameras" : [
      {
         "perspective" : {
            "yfov" : 0.7853981633974483,
            "znear" : 0.1000000014901161
         },
         "type" : "perspective"
      }
   ],
   "extensions" : {
      "GOOGLE_lights_image_based" : {
         "lights" : [
            {
               "intensity" : 1,
               "pmremTexture" : {
                  "index" : 0
               },
               "rotation" : 0
            }
         ]
      },
      "KHR_lights_punctual" : {
         "lights" : [
            {
               "color" : [ 1, 0.9333333333333333, 0.8666666666666667 ],
               "intensity" : 0.6000000238418579,
               "name" : "headLight",
               "type" : "directional"
            },
            {
               "color" : [ 1, 0.9333333333333333, 0.8666666666666667 ],
               "intensity" : 0.7800000023841847,
               "name" : "keyLight",
               "type" : "directional"
            }
         ]
      }
   },
   "extensionsUsed" : [
      "GOOGLE_backgrounds",
      "GOOGLE_lights_image_based",
      "GOOGLE_camera_settings",
      "KHR_lights_punctual"
   ],
   "extras" : {
      "GOOGLE_initial_camera_motion" : {
         "motionPath" : "SIDE_TO_SIDE"
      },
      "GOOGLE_lighting_rig" : {
         "disableShadows" : false
      }
   },
   "images" : [
      {
         "uri" : "poly_pmrem_cubeuv_the_sky_is_on_fire.jpg"
      }
   ],
   "materials" : [
      {
         "alphaMode" : "OPAQUE",
         "doubleSided" : false,
         "name" : "BlocksPaper",
         "pbrMetallicRoughness" : {
            "baseColorFactor" : [ 1, 1, 1, 1 ],
            "metallicFactor" : 0,
            "roughnessFactor" : 0.6
         }
      },
      {
         "alphaMode" : "BLEND",
         "doubleSided" : false,
         "name" : "BlocksGlass",
         "pbrMetallicRoughness" : {
            "baseColorFactor" : [ 0.2, 0.2, 1, 0.3 ],
            "metallicFactor" : 1,
            "roughnessFactor" : 0.4
         }
      },
      {
         "alphaMode" : "OPAQUE",
         "doubleSided" : true,
         "name" : "BlocksGem",
         "pbrMetallicRoughness" : {
            "baseColorFactor" : [ 1, 0.4, 1, 1 ],
            "metallicFactor" : 0,
            "roughnessFactor" : 0.1
         }
      }
   ],
   "meshes" : [
      {
         "name" : "mesh_m0-PolyPaper21_-111292",
         "primitives" : [
            {
               "attributes" : {
                  "COLOR_0" : 0,
                  "NORMAL" : 4,
                  "POSITION" : 6
               },
               "indices" : 2,
               "material" : 0,
               "mode" : 4
            }
         ]
      },
      {
         "name" : "mesh_m2-PolyGem25_-111304",
         "primitives" : [
            {
               "attributes" : {
                  "COLOR_0" : 1,
                  "NORMAL" : 5,
                  "POSITION" : 7
               },
               "indices" : 3,
               "material" : 2,
               "mode" : 4
            }
         ]
      }
   ],
   "nodes" : [
      {
         "mesh" : 1,
         "name" : "node_MeshObject-1725287424-PolyGem25"
      },
      {
         "mesh" : 0,
         "name" : "node_MeshObject1997600768-PolyPaper21"
      },
      {
         "children" : [ 3 ]
      },
      {
         "children" : [ 4 ],
         "extras" : {
            "isTransformNode" : 1
         },
         "rotation" : [ 0, 0, 0, 0 ],
         "translation" : [ -0.2719498247440321, 1.118419640495159, 0.001596094650862314 ]
      },
      {
         "children" : [ 1, 0 ],
         "translation" : [ 0.2719498247440321, -1.118419640495159, -0.001596094650862314 ]
      },
      {
         "camera" : 0,
         "children" : [ 6 ],
         "rotation" : [
            -0.2397846241056719,
            -0.2160511296924957,
            -0.05482720500455639,
            0.9448911159453699
         ],
         "translation" : [ -0.4982249308931115, 1.524666930873632, 0.6674534242661079 ]
      },
      {
         "extensions" : {
            "KHR_lights_punctual" : {
               "light" : 0
            }
         },
         "extras" : {
            "isHeadLight" : 1
         },
         "name" : "headLightNode",
         "translation" : [ -0.2479469770399411, 0.1239734885199706, 0.1239734885199706 ]
      },
      {
         "extensions" : {
            "KHR_lights_punctual" : {
               "light" : 1
            }
         },
         "extras" : {
            "isKeyLight" : 1
         },
         "name" : "keyLightNode",
         "rotation" : [ -0.7505326882858236, -0.3752663441429118, 0, 0.5439447166468927 ],
         "scale" : [ 0, 0, 0.2504264468103405 ],
         "translation" : [ -0.5199114758783467, 1.650356225090134, -0.2475882846239431 ]
      }
   ],
   "scene" : 0,
   "scenes" : [
      {
         "extensions" : {
            "GOOGLE_backgrounds" : {
               "color" : [ 0.1568627450980392, 0.207843137254902, 0.5764705882352941 ]
            },
            "GOOGLE_camera_settings" : {
               "pivot" : [ -0.1923105700935125, 1.142805330821437, 0.03347516014391708 ]
            },
            "GOOGLE_lights_image_based" : {
               "light" : 0
            }
         },
         "extras" : {
            "GOOGLE_camera_index" : {
               "cameraIndex" : 0,
               "nodeIndex" : 5
            },
            "GOOGLE_geometry_data" : {
               "stats" : {
                  "centroid" : [ -0.2694850290680061, 1.149503331469453, 0.002838162186397489 ],
                  "radius" : 0.2479469770399411,
                  "stdev" : 0.1672061997785078
               },
               "visualCenterPoint" : [ -0.2719498247440321, 1.118419640495159, 0.001596094650862314 ]
            }
         },
         "name" : "defaultScene",
         "nodes" : [ 2, 5, 7 ]
      }
   ]
}
