{
	"accessors" : 
	[
		{
			"bufferView" : 2,
			"byteOffset" : 0,
			"componentType" : 5126,
			"count" : 9972,
			"max" : 
			[
				1,
				0.835527777671814,
				0.6661169528961182,
				1
			],
			"min" : 
			[
				0,
				0.05284162983298302,
				0.01188133470714092,
				1
			],
			"name" : "accessor_color_m0-PolyPaper12_-98450",
			"type" : "VEC4"
		},
		{
			"bufferView" : 2,
			"byteOffset" : 159552,
			"componentType" : 5126,
			"count" : 9790,
			"max" : 
			[
				1,
				0.835527777671814,
				0.7226724624633789,
				1
			],
			"min" : 
			[
				0,
				0.08919350802898407,
				0.01188133470714092,
				1
			],
			"name" : "accessor_color_m1-PolyPaper12_-98452",
			"type" : "VEC4"
		},
		{
			"bufferView" : 2,
			"byteOffset" : 316192,
			"componentType" : 5126,
			"count" : 7200,
			"max" : 
			[
				1,
				0.3203815817832947,
				0.01188133470714092,
				1
			],
			"min" : 
			[
				1,
				0.09387587010860443,
				0,
				1
			],
			"name" : "accessor_color_m2-PolyPaper14_-98454",
			"type" : "VEC4"
		},
		{
			"bufferView" : 0,
			"byteOffset" : 0,
			"componentType" : 5123,
			"count" : 10662,
			"max" : 
			[
				9971
			],
			"min" : 
			[
				0
			],
			"name" : "accessor_indices_0_m0-PolyPaper12_-98450",
			"type" : "SCALAR"
		},
		{
			"bufferView" : 0,
			"byteOffset" : 21324,
			"componentType" : 5123,
			"count" : 12084,
			"max" : 
			[
				9789
			],
			"min" : 
			[
				0
			],
			"name" : "accessor_indices_0_m1-PolyPaper12_-98452",
			"type" : "SCALAR"
		},
		{
			"bufferView" : 0,
			"byteOffset" : 45492,
			"componentType" : 5123,
			"count" : 8928,
			"max" : 
			[
				7199
			],
			"min" : 
			[
				0
			],
			"name" : "accessor_indices_0_m2-PolyPaper14_-98454",
			"type" : "SCALAR"
		},
		{
			"bufferView" : 1,
			"byteOffset" : 119664,
			"componentType" : 5126,
			"count" : 9972,
			"max" : 
			[
				1,
				1,
				1
			],
			"min" : 
			[
				-1,
				-1,
				-1
			],
			"name" : "accessor_normal_m0-PolyPaper12_-98450",
			"type" : "VEC3"
		},
		{
			"bufferView" : 1,
			"byteOffset" : 356808,
			"componentType" : 5126,
			"count" : 9790,
			"max" : 
			[
				1,
				1,
				1
			],
			"min" : 
			[
				-1,
				-1,
				-1
			],
			"name" : "accessor_normal_m1-PolyPaper12_-98452",
			"type" : "VEC3"
		},
		{
			"bufferView" : 1,
			"byteOffset" : 560688,
			"componentType" : 5126,
			"count" : 7200,
			"max" : 
			[
				0.9974625,
				0.9996665,
				0.9998194
			],
			"min" : 
			[
				-0.9998083,
				-0.9996125,
				-0.9998194
			],
			"name" : "accessor_normal_m2-PolyPaper14_-98454",
			"type" : "VEC3"
		},
		{
			"bufferView" : 1,
			"byteOffset" : 0,
			"componentType" : 5126,
			"count" : 9972,
			"max" : 
			[
				0.8135417,
				1.9413,
				0.3688505
			],
			"min" : 
			[
				-0.1200313,
				0.2300343,
				-0.6899874
			],
			"name" : "accessor_position_m0-PolyPaper12_-98450",
			"type" : "VEC3"
		},
		{
			"bufferView" : 1,
			"byteOffset" : 239328,
			"componentType" : 5126,
			"count" : 9790,
			"max" : 
			[
				1.03998,
				1.943084,
				0.6100143
			],
			"min" : 
			[
				-0.3000219,
				0.2200367,
				-1.149987
			],
			"name" : "accessor_position_m1-PolyPaper12_-98452",
			"type" : "VEC3"
		},
		{
			"bufferView" : 1,
			"byteOffset" : 474288,
			"componentType" : 5126,
			"count" : 7200,
			"max" : 
			[
				0.569119,
				0.4301592,
				0.3688926
			],
			"min" : 
			[
				0.3919877,
				0.3530609,
				0.09759936
			],
			"name" : "accessor_position_m2-PolyPaper14_-98454",
			"type" : "VEC3"
		}
	],
	"asset" : 
	{
		"copyright" : "Unknown",
		"generator" : "glTF 1-to-2 Upgrader for Google Blocks",
		"version" : "2.0"
	},
	"bufferViews" : 
	[
		{
			"buffer" : 0,
			"byteLength" : 63348,
			"byteOffset" : 0,
			"name" : "ushortBufferView",
			"target" : 34963
		},
		{
			"buffer" : 0,
			"byteLength" : 647088,
			"byteOffset" : 63348,
			"byteStride" : 12,
			"name" : "vec3BufferView",
			"target" : 34962
		},
		{
			"buffer" : 0,
			"byteLength" : 431392,
			"byteOffset" : 710436,
			"byteStride" : 16,
			"name" : "vec4BufferView",
			"target" : 34962
		}
	],
	"buffers" : 
	[
		{
			"byteLength" : 1141828,
			"name" : "model",
			"uri" : "model.bin"
		}
	],
	"materials" : 
	[
		{
			"alphaMode" : "OPAQUE",
			"doubleSided" : false,
			"name" : "BlocksPaper",
			"pbrMetallicRoughness" : 
			{
				"baseColorFactor" : 
				[
					1,
					1,
					1,
					1
				],
				"metallicFactor" : 0,
				"roughnessFactor" : 0.6
			}
		},
		{
			"alphaMode" : "BLEND",
			"doubleSided" : false,
			"name" : "BlocksGlass",
			"pbrMetallicRoughness" : 
			{
				"baseColorFactor" : 
				[
					0.2,
					0.2,
					1,
					0.3
				],
				"metallicFactor" : 1,
				"roughnessFactor" : 0.4
			}
		},
		{
			"alphaMode" : "OPAQUE",
			"doubleSided" : true,
			"name" : "BlocksGem",
			"pbrMetallicRoughness" : 
			{
				"baseColorFactor" : 
				[
					1,
					0.4,
					1,
					1
				],
				"metallicFactor" : 0,
				"roughnessFactor" : 0.1
			}
		}
	],
	"meshes" : 
	[
		{
			"name" : "mesh_m0-PolyPaper12_-98450",
			"primitives" : 
			[
				{
					"attributes" : 
					{
						"COLOR_0" : 0,
						"NORMAL" : 6,
						"POSITION" : 9
					},
					"indices" : 3,
					"material" : 0,
					"mode" : 4
				}
			]
		},
		{
			"name" : "mesh_m1-PolyPaper12_-98452",
			"primitives" : 
			[
				{
					"attributes" : 
					{
						"COLOR_0" : 1,
						"NORMAL" : 7,
						"POSITION" : 10
					},
					"indices" : 4,
					"material" : 0,
					"mode" : 4
				}
			]
		},
		{
			"name" : "mesh_m2-PolyPaper14_-98454",
			"primitives" : 
			[
				{
					"attributes" : 
					{
						"COLOR_0" : 2,
						"NORMAL" : 8,
						"POSITION" : 11
					},
					"indices" : 5,
					"material" : 0,
					"mode" : 4
				}
			]
		}
	],
	"nodes" : 
	[
		{
			"matrix" : 
			[
				1,
				0,
				0,
				0,
				0,
				1,
				0,
				0,
				0,
				0,
				1,
				0,
				0,
				0,
				0,
				1
			],
			"mesh" : 2,
			"name" : "node_MeshObject1078603136-PolyPaper14"
		},
		{
			"matrix" : 
			[
				1,
				0,
				0,
				0,
				0,
				1,
				0,
				0,
				0,
				0,
				1,
				0,
				0,
				0,
				0,
				1
			],
			"mesh" : 0,
			"name" : "node_MeshObject41163008-PolyPaper12"
		},
		{
			"matrix" : 
			[
				1,
				0,
				0,
				0,
				0,
				1,
				0,
				0,
				0,
				0,
				1,
				0,
				0,
				0,
				0,
				1
			],
			"mesh" : 1,
			"name" : "node_MeshObject559883072-PolyPaper12"
		}
	],
	"scene" : 0,
	"scenes" : 
	[
		{
			"extras" : {},
			"name" : "defaultScene",
			"nodes" : 
			[
				1,
				2,
				0
			]
		}
	]
}