{
   "accessors" : [
      {
         "bufferView" : 0,
         "componentType" : 5123,
         "count" : 648,
         "max" : [ 647 ],
         "min" : [ 0 ],
         "name" : "buffer-0-accessor-indices-buffer-0-mesh-0",
         "type" : "SCALAR"
      },
      {
         "bufferView" : 2,
         "componentType" : 5126,
         "count" : 648,
         "max" : [ 1.055822014808655, 0.2405609935522079, 1.055822014808655 ],
         "min" : [ -1.055822014808655, -0.2405609935522079, -1.055822014808655 ],
         "name" : "buffer-0-accessor-position-buffer-0-mesh-0",
         "type" : "VEC3"
      },
      {
         "bufferView" : 2,
         "byteOffset" : 7776,
         "componentType" : 5126,
         "count" : 648,
         "max" : [ 0.9654016494750977, 1, 0.9654015898704529 ],
         "min" : [ -0.9654016494750977, -1, -0.9654015898704529 ],
         "name" : "buffer-0-accessor-normal-buffer-0-mesh-0",
         "type" : "VEC3"
      },
      {
         "bufferView" : 1,
         "componentType" : 5126,
         "count" : 648,
         "max" : [ 0.9604870080947876, 0 ],
         "min" : [ 0, -0.9731000065803528 ],
         "name" : "buffer-0-accessor-texcoord-buffer-0-mesh-0",
         "type" : "VEC2"
      },
      {
         "bufferView" : 3,
         "componentType" : 5126,
         "count" : 0,
         "max" : [ 0, 0, 0, 0 ],
         "min" : [ 0, 0, 0, 0 ],
         "name" : "buffer-0-accessor-color-buffer-0-mesh-0",
         "type" : "VEC4"
      }
   ],
   "asset" : {
      "generator" : "Obj2GltfConverter",
      "version" : "2.0"
   },
   "bufferViews" : [
      {
         "buffer" : 0,
         "byteLength" : 1296,
         "byteStride" : 0,
         "name" : "buffer-0-bufferview-ushort",
         "target" : 34963
      },
      {
         "buffer" : 0,
         "byteLength" : 5184,
         "byteOffset" : 1296,
         "byteStride" : 8,
         "name" : "buffer-0-bufferview-vec2",
         "target" : 34962
      },
      {
         "buffer" : 0,
         "byteLength" : 15552,
         "byteOffset" : 6480,
         "byteStride" : 12,
         "name" : "buffer-0-bufferview-vec3",
         "target" : 34962
      },
      {
         "buffer" : 0,
         "byteLength" : 1,
         "name" : "buffer-0-bufferview-vec4"
      }
   ],
   "buffers" : [
      {
         "byteLength" : 22032,
         "name" : "buffer-0",
         "uri" : "peppermint candy.bin"
      }
   ],
   "images" : [
      {
         "mimeType" : "image/png",
         "name" : "lambert4SG-image",
         "uri" : "peppermintCandyTxt.png"
      }
   ],
   "materials" : [
      {
         "doubleSided" : true,
         "name" : "lambert4SG",
         "pbrMetallicRoughness" : {
            "baseColorTexture" : {
               "index" : 0
            },
            "metallicFactor" : 0,
            "roughnessFactor" : 0.9699476628648295
         }
      }
   ],
   "meshes" : [
      {
         "name" : "buffer-0-mesh-0",
         "primitives" : [
            {
               "attributes" : {
                  "NORMAL" : 2,
                  "POSITION" : 1,
                  "TEXCOORD_0" : 3
               },
               "indices" : 0,
               "material" : 0
            }
         ]
      }
   ],
   "nodes" : [
      {
         "mesh" : 0,
         "name" : "node-0"
      }
   ],
   "samplers" : [
      {
         "name" : "lambert4SG-sampler",
         "wrapS" : 10497,
         "wrapT" : 10497
      }
   ],
   "scenes" : [
      {
         "name" : "scene-0",
         "nodes" : [ 0 ]
      }
   ],
   "textures" : [
      {
         "name" : "lambert4SG-texture",
         "sampler" : 0,
         "source" : 0
      }
   ]
}
