{
    "asset" : {
        "generator" : "Khronos glTF Blender I/O v0.9.36",
        "version" : "2.0"
    },
    "scene" : 0,
    "scenes" : [
        {
            "name" : "Scene",
            "nodes" : [
                0
            ]
        }
    ],
    "nodes" : [
        {
            "mesh" : 0,
            "name" : "\u30c6\u30ad\u30b9\u30c8",
            "rotation" : [
                0.7071067690849304,
                0,
                0,
                0.7071067690849304
            ],
            "scale" : [
                0.8000001907348633,
                0.8100000619888306,
                0.7600002288818359
            ]
        }
    ],
    "materials" : [
        {
            "doubleSided" : true,
            "name" : "\u30de\u30c6\u30ea\u30a2\u30eb",
            "pbrMetallicRoughness" : {
                "baseColorFactor" : [
                    0.8000000715255737,
                    0.0742732584476471,
                    0.604155421257019,
                    1
                ],
                "metallicFactor" : 0,
                "roughnessFactor" : 0.5
            }
        }
    ],
    "meshes" : [
        {
            "name" : "\u30c6\u30ad\u30b9\u30c8",
            "primitives" : [
                {
                    "attributes" : {
                        "POSITION" : 0,
                        "NORMAL" : 1
                    },
                    "indices" : 2,
                    "material" : 0
                },
                {
                    "attributes" : {
                        "POSITION" : 3,
                        "NORMAL" : 4
                    },
                    "indices" : 5,
                    "material" : 0
                },
                {
                    "attributes" : {
                        "POSITION" : 6,
                        "NORMAL" : 7
                    },
                    "indices" : 8,
                    "material" : 0
                },
                {
                    "attributes" : {
                        "POSITION" : 9,
                        "NORMAL" : 10
                    },
                    "indices" : 11,
                    "material" : 0
                },
                {
                    "attributes" : {
                        "POSITION" : 12,
                        "NORMAL" : 13
                    },
                    "indices" : 14,
                    "material" : 0
                },
                {
                    "attributes" : {
                        "POSITION" : 15,
                        "NORMAL" : 16
                    },
                    "indices" : 17,
                    "material" : 0
                },
                {
                    "attributes" : {
                        "POSITION" : 18,
                        "NORMAL" : 19
                    },
                    "indices" : 20,
                    "material" : 0
                }
            ]
        }
    ],
    "accessors" : [
        {
            "bufferView" : 0,
            "componentType" : 5126,
            "count" : 65535,
            "max" : [
                2.9270071983337402,
                0.09999999403953552,
                1.0878885984420776
            ],
            "min" : [
                0.6729926466941833,
                0.09999999403953552,
                -0.35236045718193054
            ],
            "type" : "VEC3"
        },
        {
            "bufferView" : 1,
            "componentType" : 5126,
            "count" : 65535,
            "type" : "VEC3"
        },
        {
            "bufferView" : 2,
            "componentType" : 5123,
            "count" : 148659,
            "type" : "SCALAR"
        },
        {
            "bufferView" : 3,
            "componentType" : 5126,
            "count" : 65533,
            "max" : [
                2.9270071983337402,
                0.09999999403953552,
                1.0878885984420776
            ],
            "min" : [
                0.024224450811743736,
                -0.09999999403953552,
                -0.32408758997917175
            ],
            "type" : "VEC3"
        },
        {
            "bufferView" : 4,
            "componentType" : 5126,
            "count" : 65533,
            "type" : "VEC3"
        },
        {
            "bufferView" : 5,
            "componentType" : 5123,
            "count" : 148608,
            "type" : "SCALAR"
        },
        {
            "bufferView" : 6,
            "componentType" : 5126,
            "count" : 65535,
            "max" : [
                1.603406310081482,
                0.09999999403953552,
                1.0282914638519287
            ],
            "min" : [
                0.024224450811743736,
                -0.09999999403953552,
                -0.35236045718193054
            ],
            "type" : "VEC3"
        },
        {
            "bufferView" : 7,
            "componentType" : 5126,
            "count" : 65535,
            "type" : "VEC3"
        },
        {
            "bufferView" : 8,
            "componentType" : 5123,
            "count" : 154437,
            "type" : "SCALAR"
        },
        {
            "bufferView" : 9,
            "componentType" : 5126,
            "count" : 65535,
            "max" : [
                1.603406310081482,
                0.09999999403953552,
                1.018491506576538
            ],
            "min" : [
                0.040875911712646484,
                -0.09999999403953552,
                -0.35236045718193054
            ],
            "type" : "VEC3"
        },
        {
            "bufferView" : 10,
            "componentType" : 5126,
            "count" : 65535,
            "type" : "VEC3"
        },
        {
            "bufferView" : 11,
            "componentType" : 5123,
            "count" : 196581,
            "type" : "SCALAR"
        },
        {
            "bufferView" : 12,
            "componentType" : 5126,
            "count" : 65535,
            "max" : [
                2.764963388442993,
                0.09999999403953552,
                1.1313868761062622
            ],
            "min" : [
                0.6812651753425598,
                -0.09999999403953552,
                0.5819951295852661
            ],
            "type" : "VEC3"
        },
        {
            "bufferView" : 13,
            "componentType" : 5126,
            "count" : 65535,
            "type" : "VEC3"
        },
        {
            "bufferView" : 14,
            "componentType" : 5123,
            "count" : 196593,
            "type" : "SCALAR"
        },
        {
            "bufferView" : 15,
            "componentType" : 5126,
            "count" : 6040,
            "max" : [
                2.9270071983337402,
                0.09999999403953552,
                1.0097323656082153
            ],
            "min" : [
                2.6501214504241943,
                -0.09999999403953552,
                0.7834550142288208
            ],
            "type" : "VEC3"
        },
        {
            "bufferView" : 16,
            "componentType" : 5126,
            "count" : 6040,
            "type" : "VEC3"
        },
        {
            "bufferView" : 17,
            "componentType" : 5123,
            "count" : 18114,
            "type" : "SCALAR"
        },
        {
            "bufferView" : 18,
            "componentType" : 5126,
            "count" : 83,
            "max" : [
                2.7648704051971436,
                0.09999999403953552,
                1.009267807006836
            ],
            "min" : [
                0.28077858686447144,
                -0.09999999403953552,
                -0.24476885795593262
            ],
            "type" : "VEC3"
        },
        {
            "bufferView" : 19,
            "componentType" : 5126,
            "count" : 83,
            "type" : "VEC3"
        },
        {
            "bufferView" : 20,
            "componentType" : 5123,
            "count" : 138,
            "type" : "SCALAR"
        }
    ],
    "bufferViews" : [
        {
            "buffer" : 0,
            "byteLength" : 786420,
            "byteOffset" : 0
        },
        {
            "buffer" : 0,
            "byteLength" : 786420,
            "byteOffset" : 786420
        },
        {
            "buffer" : 0,
            "byteLength" : 297318,
            "byteOffset" : 1572840
        },
        {
            "buffer" : 0,
            "byteLength" : 786396,
            "byteOffset" : 1870160
        },
        {
            "buffer" : 0,
            "byteLength" : 786396,
            "byteOffset" : 2656556
        },
        {
            "buffer" : 0,
            "byteLength" : 297216,
            "byteOffset" : 3442952
        },
        {
            "buffer" : 0,
            "byteLength" : 786420,
            "byteOffset" : 3740168
        },
        {
            "buffer" : 0,
            "byteLength" : 786420,
            "byteOffset" : 4526588
        },
        {
            "buffer" : 0,
            "byteLength" : 308874,
            "byteOffset" : 5313008
        },
        {
            "buffer" : 0,
            "byteLength" : 786420,
            "byteOffset" : 5621884
        },
        {
            "buffer" : 0,
            "byteLength" : 786420,
            "byteOffset" : 6408304
        },
        {
            "buffer" : 0,
            "byteLength" : 393162,
            "byteOffset" : 7194724
        },
        {
            "buffer" : 0,
            "byteLength" : 786420,
            "byteOffset" : 7587888
        },
        {
            "buffer" : 0,
            "byteLength" : 786420,
            "byteOffset" : 8374308
        },
        {
            "buffer" : 0,
            "byteLength" : 393186,
            "byteOffset" : 9160728
        },
        {
            "buffer" : 0,
            "byteLength" : 72480,
            "byteOffset" : 9553916
        },
        {
            "buffer" : 0,
            "byteLength" : 72480,
            "byteOffset" : 9626396
        },
        {
            "buffer" : 0,
            "byteLength" : 36228,
            "byteOffset" : 9698876
        },
        {
            "buffer" : 0,
            "byteLength" : 996,
            "byteOffset" : 9735104
        },
        {
            "buffer" : 0,
            "byteLength" : 996,
            "byteOffset" : 9736100
        },
        {
            "buffer" : 0,
            "byteLength" : 276,
            "byteOffset" : 9737096
        }
    ],
    "buffers" : [
        {
            "byteLength" : 9737372,
            "uri" : "portfoliotext.bin"
        }
    ]
}
